:SAMPLES-PER-SECOND 30
:FULLY-SPECIFIED
:DEGREES
575
root  -45.1975 33.8899 21.671 -160.575 63.2327 -164.892
RightUpLeg  -13.8098 -28.5431 10.1013
RightLeg  22.8036 -3.42799 -1.19088
RightFoot  -6.8542 -0.00484527 0.479817
RightToes  -13.4498 -0.0480308 -0.122186
Spine  -0.849873 -1.53555 -0.429117
Spine1  -1.56967 -3.63287 -0.100608
HEad  -68.5681 -23.1697 5.84137
LeftShoulder1  -1.94126e-019 -3.10601e-018 -2.51263e-017
LeftArm  -4.04143 11.5545 -80.5731
LeftForeArm  36.1165 -31.8417 -4.95902
LeftHand  -0.55039 -3.53097 7.4163
RightShoulder  -4.96962e-017 0 -2.36833e-017
RightArm  -46.1064 -30.5004 75.1165
RightForeArm  71.2794 3.44667 0.537473
RightHand  -0.257109 -1.04808 -6.7901
LeftUpLeg  -14.5275 7.77437 14.5493
LeftLeg  53.7914 15.1371 17.3399
LeftFoot  3.58841 -0.0396723 1.428
LeftToes  -25.9409 2.40056e-006 -7.68412e-008
576
root  -45.0968 33.9917 21.1006 -160.442 64.5122 -164.905
RightUpLeg  -12.5973 -28.1033 8.66272
RightLeg  21.3934 -2.68276 -0.85893
RightFoot  -5.69199 -0.0112859 0.329852
RightToes  -15.8286 -0.0594458 -0.142466
Spine  -0.871023 -1.04028 -0.502178
Spine1  -1.62581 -2.57183 -0.329574
HEad  -69.7773 -23.4453 6.62545
LeftShoulder1  -1.94126e-019 -3.10601e-018 -2.51263e-017
LeftArm  -7.97687 12.8158 -78.4695
LeftForeArm  32.7226 -30.3803 -4.79977
LeftHand  -0.557587 -2.48638 8.43159
RightShoulder  -4.96962e-017 0 -2.36833e-017
RightArm  -46.6336 -29.663 72.0928
RightForeArm  71.1441 2.9139 0.445838
RightHand  -0.187373 -2.71014 -7.66441
LeftUpLeg  -15.6172 4.72801 15.8963
LeftLeg  49.0937 14.9407 14.6493
LeftFoot  3.24362 -0.0287413 1.16108
LeftToes  -28.5294 2.40056e-006 -7.68412e-008
577
root  -45.0198 34.0874 20.4398 -160.931 66.2666 -165.697
RightUpLeg  -11.8006 -27.7546 6.69141
RightLeg  20.5551 -1.52785 -0.465599
RightFoot  -4.76382 -0.0148231 0.195092
RightToes  -18.0881 -0.071059 -0.161275
Spine  -0.926907 -0.676923 -0.736169
Spine1  -1.76198 -1.73539 -0.883921
HEad  -70.3439 -23.0085 7.36862
LeftShoulder1  -1.94126e-019 -3.10601e-018 -2.51263e-017
LeftArm  -12.2457 14.8312 -76.1512
LeftForeArm  29.5447 -28.3444 -4.5227
LeftHand  -0.527828 -1.33299 9.27236
RightShoulder  -4.96962e-017 0 -2.36833e-017
RightArm  -46.306 -28.3671 69.5088
RightForeArm  70.5716 3.62536 0.571815
RightHand  -0.199106 -2.88977 -8.74875
LeftUpLeg  -16.2579 2.32216 16.7349
LeftLeg  42.8546 14.6607 11.6452
LeftFoot  2.70026 -0.016646 0.867837
LeftToes  -29.5789 2.40056e-006 -7.68412e-008
578
root  -44.9914 34.1496 19.7104 -161.589 68.4313 -166.707
RightUpLeg  -11.6787 -27.0285 4.5165
RightLeg  20.6828 -0.40426 -0.126044
RightFoot  -4.04014 -0.0151852 0.117113
RightToes  -20.2241 -0.0827113 -0.178621
Spine  -0.987687 -0.359484 -0.971083
Spine1  -1.93298 -0.958952 -1.40519
HEad  -70.3674 -22.0757 7.68953
LeftShoulder1  -1.94126e-019 -3.10601e-018 -2.51263e-017
LeftArm  -15.7756 17.134 -74.0239
LeftForeArm  26.8969 -25.0044 -3.98537
LeftHand  -0.501888 -0.590106 9.862
RightShoulder  -4.96962e-017 0 -2.36833e-017
RightArm  -43.6788 -26.6851 67.2236
RightForeArm  67.7602 5.59128 0.922641
RightHand  -0.271127 -2.23182 -9.69154
LeftUpLeg  -16.7635 0.560829 17.2765
LeftLeg  35.9666 14.3966 8.92201
LeftFoot  3.08946 -0.0217916 0.936352
LeftToes  -31.8495 2.40056e-006 -7.68412e-008
579
root  -45.0177 34.1011 18.8866 -162.421 70.6034 -167.835
RightUpLeg  -12.579 -26.6332 2.19152
RightLeg  22.7496 1.09878 0.375981
RightFoot  -3.75458 -0.01652 0.037564
RightToes  -25.1177 -0.111787 -0.216643
Spine  -0.954034 -0.194467 -1.2085
Spine1  -1.91611 -0.497189 -1.8852
HEad  -70.5933 -20.8145 7.91682
LeftShoulder1  -1.94126e-019 -3.10601e-018 -2.51263e-017
LeftArm  -18.3588 19.2341 -72.118
LeftForeArm  25.7538 -20.7676 -3.33784
LeftHand  -0.479878 -0.00324313 10.402
RightShoulder  -4.96962e-017 0 -2.36833e-017
RightArm  -37.5275 -24.8151 65.3298
RightForeArm  61.4222 9.08267 1.48024
RightHand  -0.311296 -1.77374 -9.81661
LeftUpLeg  -17.3076 -1.48516 17.6381
LeftLeg  29.1437 13.8925 6.51784
LeftFoot  3.48895 -0.0254096 0.995842
LeftToes  -33.5609 2.40056e-006 -7.68412e-008
580
root  -45.0986 33.9175 17.949 -164.323 72.7405 -169.79
RightUpLeg  -14.4378 -26.8548 -0.565245
RightLeg  26.8286 2.88023 1.22374
RightFoot  -4.28093 -0.0231961 -0.0888665
RightToes  -26.4146 -0.120027 -0.22629
Spine  -0.83148 -0.0396885 -1.37007
Spine1  -1.69933 -0.0891804 -2.11703
HEad  -70.842 -19.5921 7.54476
LeftShoulder1  -1.94126e-019 -3.10601e-018 -2.51263e-017
LeftArm  -20.427 20.6851 -71.1802
LeftForeArm  26.7967 -14.5361 -2.39482
LeftHand  -0.484171 0.0238192 10.5451
RightShoulder  -4.96962e-017 0 -2.36833e-017
RightArm  -29.4789 -22.5987 63.0596
RightForeArm  53.363 13.0712 1.40435
RightHand  -0.32492 -1.47986 -9.51808
LeftUpLeg  -17.9163 -3.66612 17.4943
LeftLeg  23.1459 13.421 4.68611
LeftFoot  4.83564 -0.0487907 1.31704
LeftToes  -36.4229 2.40056e-006 -7.68412e-008
581
root  -45.2203 33.5152 16.8593 -169.21 74.6758 -174.242
RightUpLeg  -16.6429 -27.0124 -4.33845
RightLeg  32.7031 4.27898 2.3576
RightFoot  -5.63606 -0.0402364 -0.295818
RightToes  -28.222 -0.131871 -0.23942
Spine  -0.516095 0.0335038 -1.618
Spine1  -1.0805 0.111687 -2.49101
HEad  -71.3202 -18.4098 6.82174
LeftShoulder1  -1.94126e-019 -3.10601e-018 -2.51263e-017
LeftArm  -21.3354 22.1294 -70.8197
LeftForeArm  29.5182 -10.4782 -1.8245
LeftHand  -0.490384 -0.0141027 10.6082
RightShoulder  -4.96962e-017 0 -2.36833e-017
RightArm  -25.8558 -20.267 60.9345
RightForeArm  48.9163 19.0625 1.69698
RightHand  -0.345857 -0.789992 -8.69071
LeftUpLeg  -19.3955 -5.36534 16.0299
LeftLeg  22.1833 7.79143 2.59417
LeftFoot  11.1598 -0.153078 1.72832
LeftToes  -39.9157 2.40056e-006 -7.68412e-008
582
root  -45.2797 32.9613 15.8198 -171.542 75.6637 -175.315
RightUpLeg  -17.382 -26.5006 -7.28342
RightLeg  37.4679 4.60692 3.05677
RightFoot  -6.9831 -0.0598912 -0.464493
RightToes  -30.9188 -0.150299 -0.258301
Spine  0.149231 -0.0290981 -1.25767
Spine1  0.247917 0.0798373 -1.82792
HEad  -72.6882 -17.1025 6.43977
LeftShoulder1  -1.94126e-019 -3.10601e-018 -2.51263e-017
LeftArm  -21.1711 22.8749 -71.4727
LeftForeArm  33.0891 -7.18787 -1.24756
LeftHand  -0.512459 -0.218702 10.696
RightShoulder  -4.96962e-017 0 -2.36833e-017
RightArm  -27.5974 -16.8262 59.13
RightForeArm  47.664 23.3796 2.56174
RightHand  -0.360278 -0.639997 -8.78548
LeftUpLeg  -22.3257 -1.88173 14.2263
LeftLeg  31.3826 4.59533 2.40389
LeftFoot  4.74109 -0.0167771 0.566797
LeftToes  -44.9354 2.40056e-006 -7.68412e-008
583
root  -45.3348 32.5891 14.8018 179.6 76.2967 177.022
RightUpLeg  -17.2021 -24.3549 -11.5155
RightLeg  40.4474 3.56479 2.63499
RightFoot  -7.89651 -0.0602391 -0.348565
RightToes  -32.4102 -0.160865 -0.268364
Spine  0.881888 0.0578796 -1.60724
Spine1  1.70476 0.369904 -2.55135
HEad  -73.8221 -16.6888 6.25695
LeftShoulder1  -1.94126e-019 -3.10601e-018 -2.51263e-017
LeftArm  -20.4463 22.5378 -71.5285
LeftForeArm  36.5498 -4.03575 -0.689365
LeftHand  -0.503955 -0.233514 10.4934
RightShoulder  -4.96962e-017 0 -2.36833e-017
RightArm  -32.3831 -13.6729 59.9528
RightForeArm  47.6669 26.0594 3.10115
RightHand  -0.394147 -1.17667 -10.7826
LeftUpLeg  -23.3191 1.44004 10.6486
LeftLeg  37.02 2.25354 1.47584
LeftFoot  1.40372 -0.000765731 0.224043
LeftToes  -43.1486 2.40056e-006 -7.68412e-008
584
root  -45.266 32.4768 13.8917 174.083 77.8015 172.322
RightUpLeg  -16.4479 -19.8167 -13.7289
RightLeg  40.2972 1.26227 0.912906
RightFoot  -7.64931 -0.029527 0.100877
RightToes  -32.9792 -0.164965 -0.272129
Spine  1.1455 0.611752 -1.71035
Spine1  2.22687 1.58436 -2.80016
HEad  -73.3029 -16.734 5.43169
LeftShoulder1  -1.94126e-019 -3.10601e-018 -2.51263e-017
LeftArm  -22.5641 22.6996 -71.9106
LeftForeArm  39.7167 -1.27171 -0.202904
LeftHand  -0.483588 0.106393 10.6898
RightShoulder  -4.96962e-017 0 -2.36833e-017
RightArm  -38.5311 -11.404 62.4623
RightForeArm  49.6073 26.23 3.04851
RightHand  -0.348945 -2.6641 -14.5382
LeftUpLeg  -22.2616 6.46561 8.41386
LeftLeg  38.6 -0.245655 -0.177731
LeftFoot  -1.04664 0.000186189 0.181858
LeftToes  -42.2524 2.40056e-006 -7.68412e-008
585
root  -45.0997 32.6236 13.0609 169.751 79.5277 168.63
RightUpLeg  -15.1341 -14.8429 -15.0055
RightLeg  38.3793 -1.2748 -0.903732
RightFoot  -5.82915 -0.00296945 0.507872
RightToes  -33.0638 -0.165578 -0.272686
Spine  0.959954 1.09191 -1.59888
Spine1  1.88018 2.64339 -2.61435
HEad  -70.2679 -16.5354 2.96986
LeftShoulder1  -1.94126e-019 -3.10601e-018 -2.51263e-017
LeftArm  -26.2895 24.3992 -72.7912
LeftForeArm  40.2003 -0.154603 -0.0083926
LeftHand  -0.446463 0.968932 11.7116
RightShoulder  -4.96962e-017 0 -2.36833e-017
RightArm  -41.4315 -9.81547 65.7351
RightForeArm  48.7443 24.7357 2.78561
RightHand  -0.0904234 -4.9026 -19.0126
LeftUpLeg  -20.2916 8.24287 6.90912
LeftLeg  38.2591 -0.0393117 -0.0332685
LeftFoot  -2.19907 -0.00178822 0.196268
LeftToes  -40.7848 2.40056e-006 -7.68412e-008
